<?xml version="1.0" encoding="UTF-8"?>
<svg id="Layer_1" data-name="Layer 1" xmlns="http://www.w3.org/2000/svg" xmlns:xlink="http://www.w3.org/1999/xlink" viewBox="0 0 1013.81 144">
  <defs>
    <style>
      .cls-1, .cls-2 {
        fill: none;
      }

      .cls-2 {
        stroke: #191970;
        stroke-linecap: square;
        stroke-linejoin: round;
        stroke-width: 1.5px;
      }

      .cls-3 {
        font-family: LuxeUno-Bold, 'Luxe Uno';
        font-size: 160.39px;
        font-weight: 700;
      }

      .cls-4 {
        fill: #6262fd;
      }

      .cls-5 {
        fill: #2b2bee;
      }

      .cls-6 {
        fill: #191971;
        letter-spacing: 0em;
      }

      .cls-7 {
        fill: #1919e6;
        letter-spacing: 0em;
      }

      .cls-8 {
        fill: #8181fe;
      }

      .cls-9 {
        fill: #3d3df5;
        letter-spacing: .01em;
      }

      .cls-10 {
        fill: #1d1dc9;
        letter-spacing: 0em;
      }

      .cls-11 {
        fill: #1d1da5;
      }

      .cls-12 {
        clip-path: url(#clippath);
      }

      .cls-13 {
        fill: #5151fb;
        letter-spacing: -.02em;
      }
    </style>
    <clipPath id="clippath">
      <rect class="cls-1" x="-11" y="0" width="432" height="144"/>
    </clipPath>
  </defs>
  <g id="figure_1" data-name="figure 1">
    <g id="axes_1" data-name="axes 1">
      <g id="line2d_1" data-name="line2d 1">
        <g class="cls-12">
          <path class="cls-2" d="M8.64,136.74l.82-.72.4-.07.39.17.55.52.82.74.39.06.37-.18.49-.52.98-1.06.37-.07.35.17.47.5.99,1.1.35.06.33-.18.44-.53,1.11-1.44.33-.06.32.18.43.54,1.07,1.44.32.05.3-.19.4-.54,1.26-1.92.3-.02.3.22.42.64,1.06,1.72.31.08.27-.17.35-.52.78-1.69.48-.73.3-.12.26.14.33.47.61,1.37.58,1.07.31.19.25-.1.29-.4.46-1.06.89-2.07.31-.23.24.08.28.37.43,1,.93,2.22.3.2.22-.1.27-.42.42-1.1,1.01-2.77.29-.22.22.09.26.4.4,1.1.99,2.81.28.2.21-.11.26-.44.39-1.17,1.1-3.55.27-.19.2.12.26.46.4,1.27,1.01,3.39.27.23.19-.11.24-.44.36-1.21,1.24-4.58.23-.12.19.17.26.59.41,1.61.93,3.73.28.34.18-.07.22-.39.32-1.13.66-3.36.54-2.18.29-.43.18.05.2.36.31,1.07.59,3.05.58,2.54.29.48.17-.04.19-.34.29-1.04.49-2.78.75-3.99.31-.64h.17s.18.31.18.31l.27.96.46,2.59.79,4.35.29.59.16-.03.18-.32.27-1.03.44-2.73.88-5.52.29-.65.16.02.17.33.27,1.08.44,2.9.82,5.27.29.66.15-.03.17-.34.26-1.12.42-2.99.93-6.75.28-.69.15.03.16.35.26,1.15.42,3.1.89,6.59.28.69.14-.03.16-.36.25-1.21.4-3.25.99-8.23.27-.7.14.04.16.39.26,1.32.42,3.53.9,7.7.27.78.14-.03.16-.39.25-1.34.39-3.56,1.03-9.78.26-.72.13.05.16.42.25,1.43.4,3.87.94,9.23.27.82.12-.04h0s.15-.44.15-.44l.24-1.49.39-4,1.05-11.4.26-.77.12.06.15.47.25,1.62.4,4.36.95,10.68.27.92.1-.02.02-.02.15-.43.23-1.52.37-4.16,1.14-13.86.24-.64.1.09.15.55.25,1.86.4,5.04.94,11.99.27,1.09h.09s.03-.03.03-.03l.14-.44.22-1.6.35-4.38,1.22-16.46.22-.51.1.14.16.75.26,2.44.44,6.59.82,11.89.29,1.53.09.06.04-.04.13-.43.22-1.64.34-4.61,1.29-19.36.17-.38h.02s.1.22.1.22l.18,1.03.28,3.22.5,8.84.69,11.1.29,1.9.1.1.04-.05.13-.44.21-1.71.33-4.86,1.36-22.42.13-.24.04.03.11.33.19,1.44.31,4.3.62,12.74.54,9,.28,1.79.08.06.04-.05.12-.47.21-1.89.33-5.33,1.37-25.27.13-.24.04.04.11.41.2,1.71.31,4.99.68,15.74.49,8.62.27,1.68.06.03.04-.06.13-.57.21-2.21.33-6.22,1.33-27.57.15-.4.03.02.1.34.18,1.55.29,4.79.53,13.35.64,14.2.29,2.61.09.13.05-.06.12-.53.2-2.16.32-6.25.71-19.95.49-10.07.27-2,.06-.04.05.07.12.62.21,2.46.33,7.07,1.29,30.32.15.48.03-.03.1-.36.18-1.72.28-5.35.49-14.37.73-19.95.3-3.36.1-.2.05.06.11.58.2,2.45.32,7.11,1.38,34.85.1.23.04-.06.11-.56.19-2.38.31-7.02.6-20.23.57-16.12.29-3.29.09-.16.05.07.11.65.2,2.7.32,7.82,1.38,38.29.1.25.04-.06.11-.61.19-2.6.31-7.69.6-22.29.57-17.48.29-3.59.08-.18.05.08.11.71.2,2.96.32,8.56,1.38,41.88.1.28.04-.07.11-.67.19-2.83.31-8.38.6-24.3.57-19.03.29-3.91.08-.19.05.09.11.78.2,3.23.32,9.33,1.37,45.57.11.33.04-.07.11-.68.19-2.94.3-8.84.58-25.02.6-22.13.29-4.46.09-.25.05.09.11.78.2,3.32.31,9.64.69,30.57.49,16.61.27,3.27.05.08.05-.1.11-.88.2-3.66.32-10.63.73-34.58.48-16.36.26-3.24.05-.06.05.11.11.92.2,3.79.32,10.94,1.37,53.32.11.39.04-.08.11-.79.19-3.42.3-10.27.58-29.27.59-25.46.29-5.15.09-.28.05.11.11.91.2,3.87.31,11.38.72,37.03.48,17.86.26,3.45.04.06.05-.12.11-1.01.2-4.21.32-12.24.74-40.21.47-18.49.26-3.61.04-.07.05.12.11,1.03.2,4.32.32,12.52,1.38,61.5.1.42.05-.11.11-.98.19-4.13.31-12.15.62-35.93.55-26.22.29-5.41.08-.25.05.13.11,1.11.2,4.61.32,13.35,1.38,65.49.1.45.05-.11.11-1.04.19-4.39.31-12.9.62-38.12.55-27.8.29-5.73.08-.27.05.14.11,1.18.2,4.9.32,14.17,1.38,69.4.11.52.04-.1.1-.94.18-4.18.29-12.56.55-35.11.63-35.24.3-6.87.09-.4.05.13.11,1.15.2,4.91.31,14.26.69,45.19.49,24.63.27,4.97.05.12.05-.14.11-1.2.2-5.08.31-14.75.66-45.19.52-28,.28-5.72.06-.2.05.16.11,1.32.2,5.46.32,15.75,1.38,76.97.11.58.05-.12.11-1.14.19-4.89.3-14.59.59-42.19.58-34.69.29-6.98.08-.36.05.15.11,1.28.2,5.42.31,15.95.72,51.91.48,25.13.26,4.99.04.1.05-.15.11-1.3.2-5.54.31-16.11.66-49.62.52-30.22.28-6.21.06-.21.05.16.11,1.34.2,5.66.31,16.63.73,54.63.47,25.74.26,5.07.04.11.05-.18.11-1.47.2-6.08.32-17.57,1.4-87.57.1-.59.05.14.11,1.27.19,5.56.31,16.42.64,49.57.53,33.31.28,6.87.07.27.05-.18.11-1.52.2-6.28.32-18.16,1.4-90.38.1-.65.05.13.11,1.27.19,5.51.3,16.49.6,48.45.56,37.25.29,7.68.07.35.05-.18.11-1.56.2-6.46.32-18.68,1.4-92.92.1-.66.05.14.11,1.31.19,5.68.3,16.96.6,49.81.56,38.27.29,7.9.07.36.05-.19.11-1.59.2-6.61.32-19.14,1.4-95.1.1-.66.05.14.11,1.35.19,5.82.3,17.38.6,50.97.56,39.14.29,8.08.08.37.05-.19.11-1.62.2-6.74.32-19.52,1.39-96.85.11-.72.05.15.11,1.39.19,5.95.3,17.72.61,52.28.56,39.69.29,8.06.08.38.05-.19.11-1.56.2-6.57.31-19.28.71-62.42.48-31.09.27-6.22.05-.14.05.18.11,1.55.2,6.58.31,19.35.73,63.54.48,30.19.26,5.94.04.11.05-.19.11-1.57.2-6.64.31-19.49.72-63.41.48-31.06.27-6.26.05-.14.05.19.11,1.58.2,6.66.31,19.56.73,64.49.47,30.14.26,6,.04.12.05-.18.11-1.58.2-6.68.31-19.62.72-64.12.48-31.04.26-6.12.05-.13.05.19.11,1.68.2,6.99.32,20.22,1.39,99.57.11.79.04-.13.1-1.3.18-5.79.3-17.62.57-50.36.6-44.84.29-9.04.09-.51.05.17.11,1.55.2,6.64.31,19.29.69,61.13.5,33.69.27,6.94.05.2.05-.21.11-1.71.2-7.04.32-20.57,1.37-98.7.12-.93.04.12.1,1.28.18,5.74.29,17.24.56,48.99.61,46.18.3,9.13.09.49.05-.18.11-1.55.2-6.62.31-19.46.73-64.22.47-30.02.26-6,.04-.12.05.18.11,1.55.2,6.59.31,19.4.72,63.12.48,30.92.27,6.27.05.15.05-.2.11-1.67.2-6.91.32-20.2,1.37-96.67.12-.96.04.11.1,1.15.18,5.31.29,16.3.54,45.56.64,48.38.3,9.28.09.54.05-.17.11-1.5.2-6.43.31-18.94.74-63.07.47-28.65.26-5.64.04-.11.05.18.11,1.52.2,6.43.31,18.88.73,62.24.48,29.34.26,5.82.05.12.05-.19.11-1.61.2-6.66.32-19.48,1.36-93.02.13-.96.04.11.1,1.12.18,5.14.29,15.72.54,44.21.64,46.18.3,8.93.09.52.05-.15.11-1.43.2-6.14.31-18.1.75-60.84.46-26.85.26-5.23.04-.08.05.18.11,1.55.2,6.42.32,18.54,1.39,91.42.11.76.04-.12.1-1.19.18-5.24.3-15.87.59-46.02.58-38.54.29-7.91.08-.41.05.15.11,1.38.2,5.91.31,17.41.71,56.39.48,28.17.27,5.77.05.17.05-.16.11-1.39.2-5.85.31-17.1,1.4-86.31.1-.6.05.13.11,1.22.19,5.25.3,15.66.61,46.16.57,35.36.29,7.3.08.37.05-.16.11-1.33.2-5.63.31-16.46,1.4-83.01.1-.57.05.13.11,1.18.19,5.21.31,15.41.64,46.53.54,31.81.29,6.63.07.29.05-.15.11-1.27.2-5.39.31-15.78,1.4-79.49.1-.54.05.12.11,1.14.19,5,.31,14.77.64,44.55.54,30.44.29,6.35.07.28.05-.14.11-1.21.2-5.14.31-15.05,1.39-75.73.11-.55.04.1.1.99.18,4.38.3,13.29.58,38.15.6,33.65.3,6.91.09.4.05-.13.11-1.15.2-4.88.31-14.3,1.39-71.88.11-.52.04.1.11,1,.19,4.35.3,13,.6,38.15.57,29.76.29,6.21.08.32.05-.12.11-1.08.2-4.61.31-13.52,1.39-67.91.11-.48.04.1.11.95.19,4.12.3,12.3.61,36.28.57,27.86.29,5.87.09.3.05-.11.11-1.02.2-4.34.31-12.73,1.39-63.85.11-.48.05.09.11.9.19,3.89.3,11.58.61,34.12.57,26.19.29,5.52.09.29.05-.1.11-.95.2-4.07.31-11.93,1.39-59.79.11-.45.05.09.11.85.19,3.75.31,11.1.64,33.49.54,22.95.29,4.89.08.22.05-.11.11-.97.2-4.01.32-11.68,1.34-54.6.14-.7.04.05.09.59.18,2.83.28,8.75.51,24.17.69,29.92.31,5.46.1.36.05-.09.11-.82.2-3.52.31-10.34,1.39-51.75.11-.38.05.08.11.79.19,3.31.31,9.83.67,30.46.52,18.41.28,3.91.07.16.05-.09.11-.83.2-3.44.32-10.04,1.34-46.84.14-.59.04.04.1.54.18,2.56.29,7.89.53,21.94.65,23.9.31,4.68.1.31.05-.07.11-.69.2-3,.31-8.81,1.39-43.97.11-.34.04.06.11.62.19,2.67.3,7.96.61,23.47.57,18.14.29,3.8.09.21.05-.08.11-.69.2-2.9.32-8.47,1.34-39.44.14-.51.04.04.1.46.18,2.17.29,6.66.54,18.63.65,19.97.31,3.94.11.27.04-.06.11-.58.19-2.44.31-7.21.77-25.3.45-10.03.25-1.88h.04s.04.07.04.07l.12.71.21,2.82.33,8.07,1.31,35.16.18.7h.02s.09-.28.09-.28l.16-1.41.26-4.61.46-12.64.78-20.9.3-3.11.09-.18.05.06.11.55.2,2.31.32,6.68,1.4,33.27.12.3.04-.04.11-.43.19-1.89.31-5.72.66-17.92.51-10.68.28-2.23.07-.08.05.07.12.59.21,2.32.33,6.63,1.3,28.8.18.6h.02s.09-.24.09-.24l.16-1.21.27-3.89.47-10.77.75-16.19.3-2.62.1-.15.04.05.12.48.2,1.96.33,5.67,1.36,26.58.15.37.03-.02.1-.3.18-1.37.29-4.18.57-12.16.6-11.06.3-2.22.09-.11.05.05.12.47.21,1.86.33,5.32,1.31,23.29.18.47h.02s.09-.21.09-.21l.17-1.02.27-3.28.49-9.11.71-12.17.3-2.11.11-.13.04.04.12.4.21,1.64.33,4.66,1.33,20.94.18.38h.02s.1-.22.1-.22l.18-1.02.29-3.19.54-9.08.63-9.42.3-1.84.11-.1.04.04.13.38.21,1.47.33,4.22,1.31,18.41.19.39h.01s.1-.18.1-.18l.18-.88.28-2.76.53-7.82.65-8.61.3-1.65.11-.1.04.03.13.34.21,1.34.34,3.81,1.29,16.12.2.39h0s.11-.16.11-.16l.18-.78.28-2.43.53-6.88.65-7.57.3-1.45.12-.08.03.03.13.34.22,1.29.35,3.63,1.21,13.57.23.52.11-.11.17-.59.27-1.92.48-5.29.73-7.7.3-1.27.13-.06.02.02.14.31.22,1.17.36,3.26,1.18,11.7.24.51.12-.09.17-.52.27-1.68.48-4.66.73-6.68.3-1.1.14-.05.02.02.15.3.23,1.11.37,3.06,1.11,9.71.26.59.13-.06.17-.43.27-1.41.46-3.87.76-6.07.3-.94.15-.02h0s.16.32.16.32l.24,1.08.4,2.96,1,7.76.28.7.15-.03.17-.36.26-1.18.45-3.23.79-5.46.3-.8h.16s.16.3.16.3l.26,1.03.42,2.79.92,6.23.29.71h.16s.17-.32.17-.32l.27-1.03.46-2.84.77-4.6.3-.7h.17s.18.3.18.3l.27.98.45,2.65.84,4.87.31.69h.18s.18-.28.18-.28l.27-.93.48-2.58.73-3.72.31-.61h.18s.19.3.19.3l.28.95.49,2.58.74,3.67.32.64h.19s.19-.26.19-.26l.28-.85.51-2.37.68-2.92.31-.53h.19s.2.3.2.3l.3.9.54,2.5.66,2.71.32.53h.2s.21-.29.21-.29l.31-.87.64-2.66.53-1.74.29-.35.19.06.23.35.34,1.01,1.34,4.45.23.06.21-.2.29-.64.54-1.83.65-1.95.31-.37.21.04.24.31.35.88,1.32,3.71.25.07.23-.19.31-.61.63-1.85.55-1.3.31-.26.23.07.27.36.41.98,1.03,2.6.31.22.24-.09.29-.39.47-1.07.79-1.74.33-.25.25.07.29.35.45.95.91,1.94.33.23.26-.07.31-.36.51-1,.72-1.3.34-.21.27.08.32.36.53,1.01.73,1.28.35.22.29-.08.34-.35.62-1.05.6-.83.35-.15.3.11.37.41,1.46,1.92.31-.05.36-.31.7-.98.56-.6.36-.09.33.16.44.49,1.1,1.31.37.07.36-.17.51-.53.86-.87.39-.09.37.15.5.49.96.95.4.08.39-.16.58-.52.04-.04h0"/>
        </g>
      </g>
    </g>
  </g>
  <text class="cls-3" transform="translate(319.6 110.9)"><tspan class="cls-6" x="0" y="0">c</tspan><tspan class="cls-11" x="88.97" y="0">o</tspan><tspan class="cls-10" x="177.78" y="0">n</tspan><tspan class="cls-7" x="267.21" y="0">t</tspan><tspan class="cls-5" x="325.01" y="0">e</tspan><tspan class="cls-9" x="411.78" y="0">r</tspan><tspan class="cls-13" x="473.03" y="0">v</tspan><tspan class="cls-4" x="551.34" y="0">a</tspan><tspan class="cls-8" x="636" y="0">l</tspan></text>
</svg>